<svg xmlns="http://www.w3.org/2000/svg" width="81.482" height="52.575" viewBox="0 0 81.482 52.575">
  <g id="Group_5207" data-name="Group 5207" transform="translate(-325.539 -235.855)">
    <path id="Path_7578" data-name="Path 7578" d="M354.849,254.34c0-4.225-.022-8.45.006-12.674.028-4.081,1.727-5.75,5.806-5.764,3.027-.01,6.061.108,9.081-.04,2.022-.1,2.632.745,2.515,2.593-.085,1.332.025,2.676-.021,4.012s.467,1.914,1.856,1.887c3.167-.06,6.337-.049,9.5-.006,1.282.018,1.777-.555,1.757-1.778-.025-1.548.03-3.1.005-4.647-.022-1.361.45-2.072,1.966-2.042,3.519.07,7.042-.023,10.561.04,2.793.049,4.733,1.771,4.768,4.606.111,8.941.05,17.884.06,26.826,0,1.168-.5,1.575-1.712,1.49-2.173-.153-4.359-.152-6.54-.167-1.463-.011-2.664.513-3.045,2.065a2.842,2.842,0,0,0,1.666,3.309,10.1,10.1,0,0,0,5.075,1.208c.547,0,1.212-.094,1.521.493.369.7-.245,1.177-.591,1.672-.28.4-.588.908-1,1.065-2.772,1.058-5.219,3.076-8.324,3.136-4.575.087-9.153.027-13.73.019-1.187,0-2.41.147-2.985-1.355-.267-.7-1.071-.562-1.692-.572a5.247,5.247,0,0,1-4.217-2.451c-.873-1.175-.747-1.984.913-2a11.091,11.091,0,0,0,4.725-.929c1.426-.677,2.569-1.652,2.246-3.41-.33-1.8-1.784-2.19-3.359-2.246a83.484,83.484,0,0,0-14.514.941c-2.189.306-2.339-.513-2.32-2.181C354.882,263.072,354.849,258.706,354.849,254.34Zm23.835.7c1.822,0,3.644.036,5.465-.01a3.029,3.029,0,0,0,.338-6.043,110.322,110.322,0,0,0-11.34-.019,2.867,2.867,0,0,0-2.729,3.193,2.81,2.81,0,0,0,3.01,2.87C375.18,255.075,376.932,255.044,378.684,255.045Z" transform="translate(-16.913 0)" fill="#2abb52"/>
    <path id="Path_7579" data-name="Path 7579" d="M325.644,323.638c.087-5.644-.787-4.972,4.87-4.971a43.726,43.726,0,0,0,9.524-1.286,60.068,60.068,0,0,1,15.287-1.176,1.572,1.572,0,0,1,1.6,1.144,1.668,1.668,0,0,1-.794,1.816c-1.487,1.111-3.262,1.207-5.017,1.329-.976.068-2.055-.083-2.58,1.015-.553,1.157.218,2.019.812,2.876a7.035,7.035,0,0,0,4.015,2.9c.721.2,1.9-.049,1.839,1.253-.057,1.283-.675,2.813-1.885,2.7-4.674-.434-8.225,2.8-12.523,3.491a2.742,2.742,0,0,1-2.349-.534c-1.1-.882-2.247-1.705-3.273-2.661a8.5,8.5,0,0,0-6.589-2.632c-2.913.16-2.929-.041-2.938-2.945C325.642,325.186,325.644,324.412,325.644,323.638Z" transform="translate(-0.059 -46.36)" fill="#d60000"/>
    <path id="Path_7580" data-name="Path 7580" d="M475.555,323.765c0,4.974,0,5-4.968,5.216a4.324,4.324,0,0,0-2.68,1.047,36.371,36.371,0,0,0-3.91,3.21c-1.828,2-3.912,1.768-5.941.828-1.457-.674-3.017-1.035-4.463-1.791-1.254-.655-2.692-1.382-4.4-.881a2.423,2.423,0,0,1-2.976-1.763c-.42-1.095-.517-1.981,1.121-2.252a7.139,7.139,0,0,0,5.038-3.838c.983-1.718.379-2.885-1.6-3.008a14.753,14.753,0,0,1-4.758-.8c-1.017-.415-1.993-1.023-1.745-2.3.235-1.215,1.333-1.359,2.348-1.3,5.792.367,11.647.1,17.278,2.024,2.778.948,5.728.418,8.6.472,3.046.057,3.047.013,3.056,3.02C475.556,322.358,475.555,323.062,475.555,323.765Z" transform="translate(-68.535 -46.349)" fill="#d60000"/>
    <path id="Path_7581" data-name="Path 7581" d="M336.822,284.668c0,1.408.009,2.816-.009,4.224-.005.4.1.912-.355,1.127-.493.232-.806-.207-1.02-.529-1.8-2.71-4.6-3.283-7.536-3.538-1.706-.149-2.487-.879-2.348-2.7a52.753,52.753,0,0,0,.018-5.7c-.044-1.347.452-1.792,1.765-1.424,2.506.7,5.014,1.408,7.543,2.016a2.265,2.265,0,0,1,1.962,2.723C336.753,282.128,336.825,283.4,336.822,284.668Z" transform="translate(0 -23.183)" fill="#d60000"/>
    <path id="Path_7582" data-name="Path 7582" d="M404.229,235.938c.141,0,.281,0,.422,0,5.473.109,4.783-.9,4.882,4.973.025,1.523-.5,2.165-2.069,2.1-2.244-.086-4.5-.066-6.742-.006-1.391.038-2.064-.418-2.042-1.919C398.771,234.812,397.971,236.087,404.229,235.938Z" transform="translate(-42.232 -0.04)" fill="#d60000"/>
    <path id="Path_7583" data-name="Path 7583" d="M401.92,273.331c-1.681,0-3.362.034-5.042-.011-1.2-.033-2.042-.611-2.047-1.907a1.764,1.764,0,0,1,1.9-1.844c3.427-.071,6.857-.077,10.284,0a1.791,1.791,0,0,1,1.924,2.028c-.082,1.332-1.011,1.735-2.184,1.745-1.611.014-3.222,0-4.833,0Z" transform="translate(-40.01 -19.435)" fill="#d60000"/>
  </g>
</svg>
