<svg xmlns="http://www.w3.org/2000/svg" width="90.218" height="84.049" viewBox="0 0 90.218 84.049">
  <g id="Group_5206" data-name="Group 5206" transform="translate(296.881 -116.172)">
    <path id="Path_7573" data-name="Path 7573" d="M-206.669,133.185v2.754q0,21.294.006,42.587c0,.7-.03,1.234-.823,1.629q-19.845,9.867-39.658,19.8c-.173.086-.36.146-.541.218-.325-.279-.182-.617-.183-.906q-.012-23.513-.028-47.024a1.464,1.464,0,0,1,1.036-1.582q19.5-8.494,38.98-17.04C-207.524,133.469-207.149,133.358-206.669,133.185Z" fill="#2abb52"/>
    <path id="Path_7574" data-name="Path 7574" d="M-252.818,200.207a1.884,1.884,0,0,1-1.158-.347q-20.928-9.842-41.856-19.686c-.655-.308-1.051-.6-1.049-1.468q.053-22.372.026-44.745v-.681c.344-.255.59-.01.815.082,3.847,1.569,7.677,3.18,11.533,4.725a1.36,1.36,0,0,1,.989,1.51c-.037,5.278.017,10.557-.043,15.834-.022,1.921.3,2.914,2.687,1.988,1.039-.4,2.142-.641,3.186-1.033a1.361,1.361,0,0,1,1.669.4c1.688,1.81,3.4,3.593,5.107,5.39.5.528.983,1.117,1.835.764.834-.345.823-1.1.823-1.83q0-7.494-.02-14.987c0-.385,0-.77,0-1.325l3.456,1.423q5.539,2.28,11.084,4.552c.586.239.986.446.984,1.247q-.045,23.868-.024,47.737A4.3,4.3,0,0,1-252.818,200.207Z" fill="#2abb52"/>
    <path id="Path_7575" data-name="Path 7575" d="M-228.467,124.04c-5.6,2.215-11.093,4.391-16.589,6.561q-11.868,4.686-23.738,9.366a2.571,2.571,0,0,0-1.98,2.9c-.012,4.716-.006,9.432-.017,14.148,0,.3.164.693-.217.86s-.653-.116-.915-.382c-1.006-1.026-1.908-2.145-2.971-3.124a2.573,2.573,0,0,0-2.644-.63c-.845.239-1.677.522-2.515.787-.652.206-.981.02-.979-.716.013-4.917-.02-9.835.034-14.752a2.9,2.9,0,0,1,2.226-2.68q7.295-2.726,14.582-5.466,12.842-4.818,25.679-9.645a2.243,2.243,0,0,1,1.609-.175c2.646.9,5.3,1.767,7.954,2.653A3.041,3.041,0,0,1-228.467,124.04Z" fill="#d60000"/>
    <path id="Path_7576" data-name="Path 7576" d="M-211.084,129.7c-4.394,1.918-8.489,3.7-12.582,5.493q-12.837,5.614-25.664,11.245a2.336,2.336,0,0,1-2.032.036c-4.3-1.809-8.625-3.566-13.2-5.446,1.719-.692,3.214-1.3,4.716-1.9q17.038-6.732,34.073-13.476a3.483,3.483,0,0,1,2.627-.047c3.541,1.233,7.109,2.39,10.666,3.579C-212.11,129.313-211.75,129.456-211.084,129.7Z" fill="#2abb52"/>
    <path id="Path_7577" data-name="Path 7577" d="M-241.6,119.749l-12.874,4.835q-12.556,4.711-25.108,9.439a2.647,2.647,0,0,1-2.153-.047c-3.414-1.447-6.85-2.839-10.558-4.365,2.678-.9,5.094-1.715,7.515-2.522q16.012-5.338,32.026-10.675a2.1,2.1,0,0,1,1.391-.178q4.87,1.625,9.744,3.239Z" fill="#2abb52"/>
  </g>
</svg>
