<svg xmlns="http://www.w3.org/2000/svg" width="89.668" height="54.956" viewBox="0 0 89.668 54.956">
  <g id="delivery-van" transform="translate(0 -78.736)">
    <g id="Group_5205" data-name="Group 5205" transform="translate(0 78.736)">
      <path id="Path_7568" data-name="Path 7568" d="M99.257,256.572a7.878,7.878,0,1,0,7.879,7.878A7.877,7.877,0,0,0,99.257,256.572Zm0,11.3a3.425,3.425,0,1,1,3.426-3.425A3.424,3.424,0,0,1,99.257,267.874Z" transform="translate(-71.236 -217.371)" fill="#d60000"/>
      <path id="Path_7569" data-name="Path 7569" d="M287.726,256.572a7.878,7.878,0,1,0,7.879,7.878A7.876,7.876,0,0,0,287.726,256.572Zm0,11.3a3.425,3.425,0,1,1,3.426-3.425A3.424,3.424,0,0,1,287.726,267.874Z" transform="translate(-218.16 -217.371)" fill="#d60000"/>
      <path id="Path_7570" data-name="Path 7570" d="M55.185,135.4a2.013,2.013,0,0,1-2.007,2.007h-27.7a2.013,2.013,0,0,1-2.007-2.007v-1.2a2.013,2.013,0,0,1,2.007-2.007h27.7a2.013,2.013,0,0,1,2.007,2.007Z" transform="translate(-18.3 -120.409)" fill="#d60000"/>
      <path id="Path_7571" data-name="Path 7571" d="M120.565,105.481c-2.889-.751-4.542-1.223-5.676-3.414l-3.793-7.68a8.119,8.119,0,0,0-6.548-3.983H99.359a.669.669,0,0,1-.7-.688V83.276c0-2.5-1.413-4.54-4.419-4.54H51.962c-4.3,0-6.346,2.043-6.346,4.54v4.036a1.164,1.164,0,0,0,1.162,1.2H70.439a4.018,4.018,0,0,1,4.014,4.014v1.2a4.018,4.018,0,0,1-4.014,4.014H46.778A1.064,1.064,0,0,0,45.616,98.9v1.388c0,1.1,1.513,1.1,1.513,1.1H63.056a4.019,4.019,0,0,1,4.014,4.014v1.2a4.018,4.018,0,0,1-4.014,4.014H47.38s-1.764-.033-1.764,1.372v9.753a4.553,4.553,0,0,0,4.54,4.54h2.508c.569,0,.652-.317.652-.476a10.267,10.267,0,0,1,20.533,0c0,.16-.045.476.39.476H94.476c.4,0,.385-.338.385-.476a10.266,10.266,0,0,1,20.533,0c0,.16,0,.476.247.476h5.1a4.5,4.5,0,0,0,4.486-4.486v-8.523C125.229,106.1,122.963,106.1,120.565,105.481Zm-8.537-.4H99.259a.6.6,0,0,1-.6-.514V93.931s-.03-.408.648-.408h3.644a7.223,7.223,0,0,1,5.827,3.544l3.375,6.833a5.348,5.348,0,0,0,.457.738C112.731,104.8,112.53,105.082,112.028,105.082Z" transform="translate(-35.561 -78.736)" fill="#2abb52"/>
      <path id="Path_7572" data-name="Path 7572" d="M29.5,193.839a2.013,2.013,0,0,1-2.007,2.007H2.007A2.013,2.013,0,0,1,0,193.839v-1.2a2.013,2.013,0,0,1,2.007-2.007H27.5a2.013,2.013,0,0,1,2.007,2.007Z" transform="translate(0 -165.963)" fill="#d60000"/>
    </g>
  </g>
</svg>
