<svg xmlns="http://www.w3.org/2000/svg" width="74.243" height="72.035" viewBox="0 0 74.243 72.035">
  <g id="Group_5204" data-name="Group 5204" transform="translate(-258.181 -139.729)">
    <path id="Path_7561" data-name="Path 7561" d="M258.195,221.882q0-13.4-.014-26.806a1.374,1.374,0,0,1,.978-1.461c3.284-1.406,6.547-2.862,9.813-4.312a3.36,3.36,0,0,1,1.4-.3q24.976,0,49.952-.01a3.562,3.562,0,0,1,1.47.358c3.216,1.421,6.425,2.857,9.658,4.24a1.384,1.384,0,0,1,.977,1.469q-.025,14.594,0,29.189,0,12.084-.008,24.168c0,1.413,0,1.415-1.415,1.416q-4.127,0-8.254,0c-1.376,0-1.448-.025-1.377-1.44.17-3.431.066-6.862.08-10.293.022-5.387.006-10.773.006-16.16,0-4.876.008-9.752,0-14.628,0-1.5-.061-3-.093-4.506-.023-1.077-.208-1.263-1.327-1.263q-12.977,0-25.955,0H270.925c-1.637,0-1.769.135-1.769,1.809q0,9.357,0,18.713c0,5.075-.063,10.15.02,15.224.063,3.828-.129,7.654-.007,11.48.026.822-.256,1.087-1.067,1.078-2.921-.031-5.843,0-8.765,0-1.106,0-1.141-.038-1.141-1.154Q258.193,235.285,258.195,221.882Z" transform="translate(0 -38.081)" fill="#2abb52"/>
    <path id="Path_7562" data-name="Path 7562" d="M321.093,309.555c-2.239,0-4.478-.019-6.717.012-.683.01-.949-.191-.945-.911q.037-6.8,0-13.6c0-.668.242-.9.892-.9q6.8.021,13.6,0c.641,0,.92.212.917.885q-.024,6.8,0,13.6c0,.7-.26.935-.953.925C325.627,309.536,323.36,309.555,321.093,309.555Z" transform="translate(-42.709 -119.373)" fill="#d60000"/>
    <path id="Path_7563" data-name="Path 7563" d="M403.143,301.858c0,2.239-.025,4.479.013,6.718.013.755-.261.971-.992.967q-6.718-.039-13.437,0c-.81.006-1.007-.3-1-1.042q.036-6.676,0-13.352c-.005-.791.273-1.033,1.035-1.029q6.676.035,13.352,0c.84-.006,1.062.315,1.048,1.1C403.117,297.435,403.143,299.647,403.143,301.858Z" transform="translate(-100.137 -119.348)" fill="#d60000"/>
    <path id="Path_7564" data-name="Path 7564" d="M403.143,376.625c0,2.211-.024,4.422.013,6.633.013.751-.2,1.068-1,1.063q-6.717-.041-13.435,0c-.723,0-1-.227-1-.98q.039-6.718,0-13.435c-.005-.8.293-1,1.045-1q6.675.04,13.35,0c.851-.007,1.054.311,1.04,1.094C403.117,372.2,403.143,374.414,403.143,376.625Z" transform="translate(-100.136 -177.152)" fill="#d60000"/>
    <path id="Path_7565" data-name="Path 7565" d="M477.507,376.668c0,2.239-.02,4.478.012,6.716.01.7-.234.951-.931.949q-6.8-.027-13.6,0c-.672,0-.885-.278-.882-.92q.023-6.8,0-13.6c0-.655.239-.89.9-.887q6.8.03,13.6,0c.721,0,.919.265.91.946C477.488,372.134,477.507,374.4,477.507,376.668Z" transform="translate(-157.636 -177.169)" fill="#d60000"/>
    <path id="Path_7566" data-name="Path 7566" d="M313.443,376.657c0-2.269.021-4.539-.012-6.808-.01-.706.234-.929.932-.925q6.765.035,13.531,0c.694,0,.956.223.953.927q-.029,6.766,0,13.531c0,.7-.271.954-.958.951q-6.765-.022-13.531,0c-.7,0-.936-.261-.926-.955C313.463,381.139,313.443,378.9,313.443,376.657Z" transform="translate(-42.709 -177.172)" fill="#d60000"/>
    <path id="Path_7567" data-name="Path 7567" d="M369.777,149.379H326.59c.14-.441.492-.471.753-.587q10.073-4.458,20.153-8.9a1.584,1.584,0,0,1,1.383,0q10.111,4.477,20.227,8.94C369.344,148.931,369.666,148.956,369.777,149.379Z" transform="translate(-52.881)" fill="#d60000"/>
  </g>
</svg>
